<?xml version="1.0" standalone="no"?><!DOCTYPE svg PUBLIC "-//W3C//DTD SVG 1.1//EN" "http://www.w3.org/Graphics/SVG/1.1/DTD/svg11.dtd"><svg t="1627808549814" class="icon" viewBox="0 0 1024 1024" version="1.1" xmlns="http://www.w3.org/2000/svg" p-id="2030" xmlns:xlink="http://www.w3.org/1999/xlink" width="16" height="16"><defs><style type="text/css"></style></defs><path d="M716.8 0c169.664 0 307.2 137.536 307.2 307.2v409.6c0 169.664-137.536 307.2-307.2 307.2H307.2C137.536 1024 0 886.464 0 716.8V307.2C0 137.536 137.536 0 307.2 0h409.6z m91.904 305.536c-18.304-22.016-176.1792-92.8384-333.8496-87.6672-157.6704 5.1712-277.568 84.3904-277.568 155.6864 0 71.3088 22.5408 161.3824 277.568 192.5632 221.4912 30.336 114.3424 113.8944 0 113.8944s-180.0832-41.1776-228.8256-41.1776c-48.7424 0-81.856 42.3808-21.2224 96.5888 55.36 49.4976 158.6304 62.1056 252.8512 69.568C571.8784 812.4544 832 794.88 832 638.8352c0-152.9088-205.8624-196.3776-294.5024-206.0416-88.6272-9.6768-131.1232-44.0064-131.1232-59.2384 0-15.5264 37.5552-54.0544 123.2512-44.096 85.696 9.9584 182.6304 44.096 221.696 44.096 39.0784 0 75.6992-46.0032 57.3824-68.0192z" fill="#FF7D2A" p-id="2031"></path></svg>